<svg xmlns="http://www.w3.org/2000/svg" viewBox="0 0 365.86 549.55"><path d="M334.75 255.15c-.82-.51-1.47 1.27-.92 2.54l4.99 11.69H220.3C206.38 43.09 61.89 15.73 20.29 12.56c.17-.74.26-1.5.26-2.29C20.55 4.6 15.95 0 10.28 0S0 4.6 0 10.28c0 4.98 3.54 9.12 8.23 10.07v240.6c-4.57 3.5-7.42 8.4-7.42 13.82s2.85 10.33 7.42 13.82v240.6C3.54 530.15 0 534.3 0 539.28c0 5.67 4.6 10.28 10.28 10.28s10.28-4.6 10.28-10.28c0-.79-.1-1.55-.26-2.29 41.6-3.17 186.09-30.53 200.02-256.82h118.81l-5.42 11.41c-.51 1.59.38 3.49 1.3 2.73l30.87-19.41-31.13-19.75zm-147.64 14.23H48.39c-2.95-7.99-12.26-13.83-23.3-13.83-4.33 0-8.39.9-11.91 2.47V20.49c158.21 28.54 172.63 212.77 173.93 248.89zM13.18 529.06V291.52c3.52 1.57 7.58 2.47 11.91 2.47 11.04 0 20.35-5.84 23.3-13.83h138.73c-1.31 36.13-15.73 220.37-173.94 248.9z" opacity=".63"/></svg>