<svg xmlns="http://www.w3.org/2000/svg" viewBox="0 0 1920 1080"><path fill="#272726" d="M0 .25h1920v1080H0z"/><path d="M123 63.54V52.6h-21.6v36.79h47.13V27.75H15v61.64h47.13V52.6h-21.6v10.94h10.8v14.91H25.8V38.69h50.56v114.33H25.8v-39.77h25.53v14.91h-10.8v10.94h21.6v-36.79H15v61.64h133.53v-61.64H101.4v36.79H123v-10.94h-10.8v-14.91h25.53v39.77H87.16V38.69h50.57v39.76H112.2V63.54zM270.27 63.54V52.6h-21.6v36.79h47.13V27.75H162.27v61.64h47.13V52.6h-21.6v10.94h10.8v14.91h-25.53V38.69h50.57v114.33h-50.57v-39.77h25.53v14.91h-10.8v10.94h21.6v-36.79h-47.13v61.64H295.8v-61.64h-47.13v36.79h21.6v-10.94h-10.8v-14.91H285v39.77h-50.56V38.69H285v39.76h-25.53V63.54zM416.56 63.54V52.6h-21.6v36.79h47.13V27.75H308.56v61.64h47.13V52.6h-21.6v10.94h10.8v14.91h-25.53V38.69h50.57v114.33h-50.57v-39.77h25.53v14.91h-10.8v10.94h21.6v-36.79h-47.13v61.64h133.53v-61.64h-47.13v36.79h21.6v-10.94h-10.8v-14.91h25.53v39.77h-50.56V38.69h50.56v39.76h-25.53V63.54zM562.85 63.54V52.6h-21.6v36.79h47.13V27.75H454.85v61.64h47.13V52.6h-21.6v10.94h10.8v14.91h-25.53V38.69h50.57v114.33h-50.57v-39.77h25.53v14.91h-10.8v10.94h21.6v-36.79h-47.13v61.64h133.53v-61.64h-47.13v36.79h21.6v-10.94h-10.8v-14.91h25.53v39.77h-50.56V38.69h50.56v39.76h-25.53V63.54zM709.15 63.54V52.6h-21.6v36.79h47.12V27.75H601.15v61.64h47.12V52.6h-21.6v10.94h10.8v14.91h-25.52V38.69h50.56v114.33h-50.56v-39.77h25.52v14.91h-10.8v10.94h21.6v-36.79h-47.12v61.64h133.52v-61.64h-47.12v36.79h21.6v-10.94h-10.8v-14.91h25.52v39.77h-50.56V38.69h50.56v39.76h-25.52V63.54zM855.44 63.54V52.6h-21.6v36.79h47.12V27.75H747.44v61.64h47.12V52.6h-21.6v10.94h10.8v14.91h-25.52V38.69h50.56v114.33h-50.56v-39.77h25.52v14.91h-10.8v10.94h21.6v-36.79h-47.12v61.64h133.52v-61.64h-47.12v36.79h21.6v-10.94h-10.8v-14.91h25.52v39.77H819.6V38.69h50.56v39.76h-25.52V63.54zM1001.73 63.54V52.6h-21.6v36.79h47.12V27.75H893.73v61.64h47.12V52.6h-21.6v10.94h10.8v14.91h-25.52V38.69h50.56v114.33h-50.56v-39.77h25.52v14.91h-10.8v10.94h21.6v-36.79h-47.12v61.64h133.52v-61.64h-47.12v36.79h21.6v-10.94h-10.8v-14.91h25.52v39.77h-50.56V38.69h50.56v39.76h-25.52V63.54zM1148.02 63.54V52.6h-21.6v36.79h47.13V27.75h-133.53v61.64h47.13V52.6h-21.6v10.94h10.8v14.91h-25.53V38.69h50.56v114.33h-50.56v-39.77h25.53v14.91h-10.8v10.94h21.6v-36.79h-47.13v61.64h133.53v-61.64h-47.13v36.79h21.6v-10.94h-10.8v-14.91h25.53v39.77h-50.57V38.69h50.57v39.76h-25.53V63.54zM1294.31 63.54V52.6h-21.6v36.79h47.13V27.75h-133.53v61.64h47.13V52.6h-21.6v10.94h10.8v14.91h-25.53V38.69h50.56v114.33h-50.56v-39.77h25.53v14.91h-10.8v10.94h21.6v-36.79h-47.13v61.64h133.53v-61.64h-47.13v36.79h21.6v-10.94h-10.8v-14.91h25.53v39.77h-50.57V38.69h50.57v39.76h-25.53V63.54zM1440.6 63.54V52.6H1419v36.79h47.13V27.75H1332.6v61.64h47.13V52.6h-21.6v10.94h10.8v14.91h-25.53V38.69h50.56v114.33h-50.56v-39.77h25.53v14.91h-10.8v10.94h21.6v-36.79h-47.13v61.64h133.53v-61.64H1419v36.79h21.6v-10.94h-10.8v-14.91h25.53v39.77h-50.57V38.69h50.57v39.76h-25.53V63.54zM1586.89 63.54V52.6h-21.6v36.79h47.13V27.75h-133.53v61.64h47.13V52.6h-21.6v10.94h10.8v14.91h-25.53V38.69h50.56v114.33h-50.56v-39.77h25.53v14.91h-10.8v10.94h21.6v-36.79h-47.13v61.64h133.53v-61.64h-47.13v36.79h21.6v-10.94h-10.8v-14.91h25.53v39.77h-50.57V38.69h50.57v39.76h-25.53V63.54zM1733.18 63.54V52.6h-21.6v36.79h47.13V27.75h-133.53v61.64h47.13V52.6h-21.6v10.94h10.8v14.91h-25.53V38.69h50.57v114.33h-50.57v-39.77h25.53v14.91h-10.8v10.94h21.6v-36.79h-47.13v61.64h133.53v-61.64h-47.13v36.79h21.6v-10.94h-10.8v-14.91h25.53v39.77h-50.56V38.69h50.56v39.76h-25.53V63.54zM1879.47 63.54V52.6h-21.6v36.79H1905V27.75h-133.53v61.64h47.13V52.6H1797v10.94h10.8v14.91h-25.53V38.69h50.57v114.33h-50.57v-39.77h25.53v14.91H1797v10.94h21.6v-36.79h-47.13v61.64H1905v-61.64h-47.13v36.79h21.6v-10.94h-10.8v-14.91h25.53v39.77h-50.56V38.69h50.56v39.76h-25.53V63.54zM123 211.67v-10.93h-21.6v36.78h47.13v-61.64H15v61.64h47.13v-36.78h-21.6v10.93h10.8v14.92H25.8v-39.77h50.56v114.33H25.8v-39.77h25.53v14.92h-10.8v10.93h21.6v-36.78H15v61.64h133.53v-61.64H101.4v36.78H123V276.3h-10.8v-14.92h25.53v39.77H87.16V186.82h50.57v39.77H112.2v-14.92zM270.27 211.67v-10.93h-21.6v36.78h47.13v-61.64H162.27v61.64h47.13v-36.78h-21.6v10.93h10.8v14.92h-25.53v-39.77h50.57v114.33h-50.57v-39.77h25.53v14.92h-10.8v10.93h21.6v-36.78h-47.13v61.64H295.8v-61.64h-47.13v36.78h21.6V276.3h-10.8v-14.92H285v39.77h-50.56V186.82H285v39.77h-25.53v-14.92zM416.56 211.67v-10.93h-21.6v36.78h47.13v-61.64H308.56v61.64h47.13v-36.78h-21.6v10.93h10.8v14.92h-25.53v-39.77h50.57v114.33h-50.57v-39.77h25.53v14.92h-10.8v10.93h21.6v-36.78h-47.13v61.64h133.53v-61.64h-47.13v36.78h21.6V276.3h-10.8v-14.92h25.53v39.77h-50.56V186.82h50.56v39.77h-25.53v-14.92zM562.85 211.67v-10.93h-21.6v36.78h47.13v-61.64H454.85v61.64h47.13v-36.78h-21.6v10.93h10.8v14.92h-25.53v-39.77h50.57v114.33h-50.57v-39.77h25.53v14.92h-10.8v10.93h21.6v-36.78h-47.13v61.64h133.53v-61.64h-47.13v36.78h21.6V276.3h-10.8v-14.92h25.53v39.77h-50.56V186.82h50.56v39.77h-25.53v-14.92zM709.15 211.67v-10.93h-21.6v36.78h47.12v-61.64H601.15v61.64h47.12v-36.78h-21.6v10.93h10.8v14.92h-25.52v-39.77h50.56v114.33h-50.56v-39.77h25.52v14.92h-10.8v10.93h21.6v-36.78h-47.12v61.64h133.52v-61.64h-47.12v36.78h21.6V276.3h-10.8v-14.92h25.52v39.77h-50.56V186.82h50.56v39.77h-25.52v-14.92zM855.44 211.67v-10.93h-21.6v36.78h47.12v-61.64H747.44v61.64h47.12v-36.78h-21.6v10.93h10.8v14.92h-25.52v-39.77h50.56v114.33h-50.56v-39.77h25.52v14.92h-10.8v10.93h21.6v-36.78h-47.12v61.64h133.52v-61.64h-47.12v36.78h21.6V276.3h-10.8v-14.92h25.52v39.77H819.6V186.82h50.56v39.77h-25.52v-14.92zM1001.73 211.67v-10.93h-21.6v36.78h47.12v-61.64H893.73v61.64h47.12v-36.78h-21.6v10.93h10.8v14.92h-25.52v-39.77h50.56v114.33h-50.56v-39.77h25.52v14.92h-10.8v10.93h21.6v-36.78h-47.12v61.64h133.52v-61.64h-47.12v36.78h21.6V276.3h-10.8v-14.92h25.52v39.77h-50.56V186.82h50.56v39.77h-25.52v-14.92zM1148.02 211.67v-10.93h-21.6v36.78h47.13v-61.64h-133.53v61.64h47.13v-36.78h-21.6v10.93h10.8v14.92h-25.53v-39.77h50.56v114.33h-50.56v-39.77h25.53v14.92h-10.8v10.93h21.6v-36.78h-47.13v61.64h133.53v-61.64h-47.13v36.78h21.6V276.3h-10.8v-14.92h25.53v39.77h-50.57V186.82h50.57v39.77h-25.53v-14.92zM1294.31 211.67v-10.93h-21.6v36.78h47.13v-61.64h-133.53v61.64h47.13v-36.78h-21.6v10.93h10.8v14.92h-25.53v-39.77h50.56v114.33h-50.56v-39.77h25.53v14.92h-10.8v10.93h21.6v-36.78h-47.13v61.64h133.53v-61.64h-47.13v36.78h21.6V276.3h-10.8v-14.92h25.53v39.77h-50.57V186.82h50.57v39.77h-25.53v-14.92zM1440.6 211.67v-10.93H1419v36.78h47.13v-61.64H1332.6v61.64h47.13v-36.78h-21.6v10.93h10.8v14.92h-25.53v-39.77h50.56v114.33h-50.56v-39.77h25.53v14.92h-10.8v10.93h21.6v-36.78h-47.13v61.64h133.53v-61.64H1419v36.78h21.6V276.3h-10.8v-14.92h25.53v39.77h-50.57V186.82h50.57v39.77h-25.53v-14.92zM1586.89 211.67v-10.93h-21.6v36.78h47.13v-61.64h-133.53v61.64h47.13v-36.78h-21.6v10.93h10.8v14.92h-25.53v-39.77h50.56v114.33h-50.56v-39.77h25.53v14.92h-10.8v10.93h21.6v-36.78h-47.13v61.64h133.53v-61.64h-47.13v36.78h21.6V276.3h-10.8v-14.92h25.53v39.77h-50.57V186.82h50.57v39.77h-25.53v-14.92zM1733.18 211.67v-10.93h-21.6v36.78h47.13v-61.64h-133.53v61.64h47.13v-36.78h-21.6v10.93h10.8v14.92h-25.53v-39.77h50.57v114.33h-50.57v-39.77h25.53v14.92h-10.8v10.93h21.6v-36.78h-47.13v61.64h133.53v-61.64h-47.13v36.78h21.6V276.3h-10.8v-14.92h25.53v39.77h-50.56V186.82h50.56v39.77h-25.53v-14.92zM1879.47 211.67v-10.93h-21.6v36.78H1905v-61.64h-133.53v61.64h47.13v-36.78H1797v10.93h10.8v14.92h-25.53v-39.77h50.57v114.33h-50.57v-39.77h25.53v14.92H1797v10.93h21.6v-36.78h-47.13v61.64H1905v-61.64h-47.13v36.78h21.6V276.3h-10.8v-14.92h25.53v39.77h-50.56V186.82h50.56v39.77h-25.53v-14.92zM123 359.81v-10.94h-21.6v36.78h47.13v-61.63H15v61.63h47.13v-36.78h-21.6v10.94h10.8v14.91H25.8v-39.77h50.56v114.33H25.8v-39.76h25.53v14.91h-10.8v10.93h21.6v-36.78H15v61.64h133.53v-61.64H101.4v36.78H123v-10.93h-10.8v-14.91h25.53v39.76H87.16V334.95h50.57v39.77H112.2v-14.91zM270.27 359.81v-10.94h-21.6v36.78h47.13v-61.63H162.27v61.63h47.13v-36.78h-21.6v10.94h10.8v14.91h-25.53v-39.77h50.57v114.33h-50.57v-39.76h25.53v14.91h-10.8v10.93h21.6v-36.78h-47.13v61.64H295.8v-61.64h-47.13v36.78h21.6v-10.93h-10.8v-14.91H285v39.76h-50.56V334.95H285v39.77h-25.53v-14.91zM416.56 359.81v-10.94h-21.6v36.78h47.13v-61.63H308.56v61.63h47.13v-36.78h-21.6v10.94h10.8v14.91h-25.53v-39.77h50.57v114.33h-50.57v-39.76h25.53v14.91h-10.8v10.93h21.6v-36.78h-47.13v61.64h133.53v-61.64h-47.13v36.78h21.6v-10.93h-10.8v-14.91h25.53v39.76h-50.56V334.95h50.56v39.77h-25.53v-14.91zM562.85 359.81v-10.94h-21.6v36.78h47.13v-61.63H454.85v61.63h47.13v-36.78h-21.6v10.94h10.8v14.91h-25.53v-39.77h50.57v114.33h-50.57v-39.76h25.53v14.91h-10.8v10.93h21.6v-36.78h-47.13v61.64h133.53v-61.64h-47.13v36.78h21.6v-10.93h-10.8v-14.91h25.53v39.76h-50.56V334.95h50.56v39.77h-25.53v-14.91zM709.15 359.81v-10.94h-21.6v36.78h47.12v-61.63H601.15v61.63h47.12v-36.78h-21.6v10.94h10.8v14.91h-25.52v-39.77h50.56v114.33h-50.56v-39.76h25.52v14.91h-10.8v10.93h21.6v-36.78h-47.12v61.64h133.52v-61.64h-47.12v36.78h21.6v-10.93h-10.8v-14.91h25.52v39.76h-50.56V334.95h50.56v39.77h-25.52v-14.91zM855.44 359.81v-10.94h-21.6v36.78h47.12v-61.63H747.44v61.63h47.12v-36.78h-21.6v10.94h10.8v14.91h-25.52v-39.77h50.56v114.33h-50.56v-39.76h25.52v14.91h-10.8v10.93h21.6v-36.78h-47.12v61.64h133.52v-61.64h-47.12v36.78h21.6v-10.93h-10.8v-14.91h25.52v39.76H819.6V334.95h50.56v39.77h-25.52v-14.91zM1001.73 359.81v-10.94h-21.6v36.78h47.12v-61.63H893.73v61.63h47.12v-36.78h-21.6v10.94h10.8v14.91h-25.52v-39.77h50.56v114.33h-50.56v-39.76h25.52v14.91h-10.8v10.93h21.6v-36.78h-47.12v61.64h133.52v-61.64h-47.12v36.78h21.6v-10.93h-10.8v-14.91h25.52v39.76h-50.56V334.95h50.56v39.77h-25.52v-14.91zM1148.02 359.81v-10.94h-21.6v36.78h47.13v-61.63h-133.53v61.63h47.13v-36.78h-21.6v10.94h10.8v14.91h-25.53v-39.77h50.56v114.33h-50.56v-39.76h25.53v14.91h-10.8v10.93h21.6v-36.78h-47.13v61.64h133.53v-61.64h-47.13v36.78h21.6v-10.93h-10.8v-14.91h25.53v39.76h-50.57V334.95h50.57v39.77h-25.53v-14.91zM1294.31 359.81v-10.94h-21.6v36.78h47.13v-61.63h-133.53v61.63h47.13v-36.78h-21.6v10.94h10.8v14.91h-25.53v-39.77h50.56v114.33h-50.56v-39.76h25.53v14.91h-10.8v10.93h21.6v-36.78h-47.13v61.64h133.53v-61.64h-47.13v36.78h21.6v-10.93h-10.8v-14.91h25.53v39.76h-50.57V334.95h50.57v39.77h-25.53v-14.91zM1440.6 359.81v-10.94H1419v36.78h47.13v-61.63H1332.6v61.63h47.13v-36.78h-21.6v10.94h10.8v14.91h-25.53v-39.77h50.56v114.33h-50.56v-39.76h25.53v14.91h-10.8v10.93h21.6v-36.78h-47.13v61.64h133.53v-61.64H1419v36.78h21.6v-10.93h-10.8v-14.91h25.53v39.76h-50.57V334.95h50.57v39.77h-25.53v-14.91zM1586.89 359.81v-10.94h-21.6v36.78h47.13v-61.63h-133.53v61.63h47.13v-36.78h-21.6v10.94h10.8v14.91h-25.53v-39.77h50.56v114.33h-50.56v-39.76h25.53v14.91h-10.8v10.93h21.6v-36.78h-47.13v61.64h133.53v-61.64h-47.13v36.78h21.6v-10.93h-10.8v-14.91h25.53v39.76h-50.57V334.95h50.57v39.77h-25.53v-14.91zM1733.18 359.81v-10.94h-21.6v36.78h47.13v-61.63h-133.53v61.63h47.13v-36.78h-21.6v10.94h10.8v14.91h-25.53v-39.77h50.57v114.33h-50.57v-39.76h25.53v14.91h-10.8v10.93h21.6v-36.78h-47.13v61.64h133.53v-61.64h-47.13v36.78h21.6v-10.93h-10.8v-14.91h25.53v39.76h-50.56V334.95h50.56v39.77h-25.53v-14.91zM1879.47 359.81v-10.94h-21.6v36.78H1905v-61.63h-133.53v61.63h47.13v-36.78H1797v10.94h10.8v14.91h-25.53v-39.77h50.57v114.33h-50.57v-39.76h25.53v14.91H1797v10.93h21.6v-36.78h-47.13v61.64H1905v-61.64h-47.13v36.78h21.6v-10.93h-10.8v-14.91h25.53v39.76h-50.56V334.95h50.56v39.77h-25.53v-14.91zM123 507.94V497h-21.6v36.79h47.13v-61.64H15v61.64h47.13V497h-21.6v10.94h10.8v14.91H25.8v-39.77h50.56v114.34H25.8v-39.77h25.53v14.91h-10.8v10.94h21.6v-36.79H15v61.64h133.53v-61.64H101.4v36.79H123v-10.94h-10.8v-14.91h25.53v39.77H87.16V483.08h50.57v39.77H112.2v-14.91zM270.27 507.94V497h-21.6v36.79h47.13v-61.64H162.27v61.64h47.13V497h-21.6v10.94h10.8v14.91h-25.53v-39.77h50.57v114.34h-50.57v-39.77h25.53v14.91h-10.8v10.94h21.6v-36.79h-47.13v61.64H295.8v-61.64h-47.13v36.79h21.6v-10.94h-10.8v-14.91H285v39.77h-50.56V483.08H285v39.77h-25.53v-14.91zM416.56 507.94V497h-21.6v36.79h47.13v-61.64H308.56v61.64h47.13V497h-21.6v10.94h10.8v14.91h-25.53v-39.77h50.57v114.34h-50.57v-39.77h25.53v14.91h-10.8v10.94h21.6v-36.79h-47.13v61.64h133.53v-61.64h-47.13v36.79h21.6v-10.94h-10.8v-14.91h25.53v39.77h-50.56V483.08h50.56v39.77h-25.53v-14.91zM562.85 507.94V497h-21.6v36.79h47.13v-61.64H454.85v61.64h47.13V497h-21.6v10.94h10.8v14.91h-25.53v-39.77h50.57v114.34h-50.57v-39.77h25.53v14.91h-10.8v10.94h21.6v-36.79h-47.13v61.64h133.53v-61.64h-47.13v36.79h21.6v-10.94h-10.8v-14.91h25.53v39.77h-50.56V483.08h50.56v39.77h-25.53v-14.91zM709.15 507.94V497h-21.6v36.79h47.12v-61.64H601.15v61.64h47.12V497h-21.6v10.94h10.8v14.91h-25.52v-39.77h50.56v114.34h-50.56v-39.77h25.52v14.91h-10.8v10.94h21.6v-36.79h-47.12v61.64h133.52v-61.64h-47.12v36.79h21.6v-10.94h-10.8v-14.91h25.52v39.77h-50.56V483.08h50.56v39.77h-25.52v-14.91zM855.44 507.94V497h-21.6v36.79h47.12v-61.64H747.44v61.64h47.12V497h-21.6v10.94h10.8v14.91h-25.52v-39.77h50.56v114.34h-50.56v-39.77h25.52v14.91h-10.8v10.94h21.6v-36.79h-47.12v61.64h133.52v-61.64h-47.12v36.79h21.6v-10.94h-10.8v-14.91h25.52v39.77H819.6V483.08h50.56v39.77h-25.52v-14.91zM1001.73 507.94V497h-21.6v36.79h47.12v-61.64H893.73v61.64h47.12V497h-21.6v10.94h10.8v14.91h-25.52v-39.77h50.56v114.34h-50.56v-39.77h25.52v14.91h-10.8v10.94h21.6v-36.79h-47.12v61.64h133.52v-61.64h-47.12v36.79h21.6v-10.94h-10.8v-14.91h25.52v39.77h-50.56V483.08h50.56v39.77h-25.52v-14.91zM1148.02 507.94V497h-21.6v36.79h47.13v-61.64h-133.53v61.64h47.13V497h-21.6v10.94h10.8v14.91h-25.53v-39.77h50.56v114.34h-50.56v-39.77h25.53v14.91h-10.8v10.94h21.6v-36.79h-47.13v61.64h133.53v-61.64h-47.13v36.79h21.6v-10.94h-10.8v-14.91h25.53v39.77h-50.57V483.08h50.57v39.77h-25.53v-14.91zM1294.31 507.94V497h-21.6v36.79h47.13v-61.64h-133.53v61.64h47.13V497h-21.6v10.94h10.8v14.91h-25.53v-39.77h50.56v114.34h-50.56v-39.77h25.53v14.91h-10.8v10.94h21.6v-36.79h-47.13v61.64h133.53v-61.64h-47.13v36.79h21.6v-10.94h-10.8v-14.91h25.53v39.77h-50.57V483.08h50.57v39.77h-25.53v-14.91zM1440.6 507.94V497H1419v36.79h47.13v-61.64H1332.6v61.64h47.13V497h-21.6v10.94h10.8v14.91h-25.53v-39.77h50.56v114.34h-50.56v-39.77h25.53v14.91h-10.8v10.94h21.6v-36.79h-47.13v61.64h133.53v-61.64H1419v36.79h21.6v-10.94h-10.8v-14.91h25.53v39.77h-50.57V483.08h50.57v39.77h-25.53v-14.91zM1586.89 507.94V497h-21.6v36.79h47.13v-61.64h-133.53v61.64h47.13V497h-21.6v10.94h10.8v14.91h-25.53v-39.77h50.56v114.34h-50.56v-39.77h25.53v14.91h-10.8v10.94h21.6v-36.79h-47.13v61.64h133.53v-61.64h-47.13v36.79h21.6v-10.94h-10.8v-14.91h25.53v39.77h-50.57V483.08h50.57v39.77h-25.53v-14.91zM1733.18 507.94V497h-21.6v36.79h47.13v-61.64h-133.53v61.64h47.13V497h-21.6v10.94h10.8v14.91h-25.53v-39.77h50.57v114.34h-50.57v-39.77h25.53v14.91h-10.8v10.94h21.6v-36.79h-47.13v61.64h133.53v-61.64h-47.13v36.79h21.6v-10.94h-10.8v-14.91h25.53v39.77h-50.56V483.08h50.56v39.77h-25.53v-14.91zM1879.47 507.94V497h-21.6v36.79H1905v-61.64h-133.53v61.64h47.13V497H1797v10.94h10.8v14.91h-25.53v-39.77h50.57v114.34h-50.57v-39.77h25.53v14.91H1797v10.94h21.6v-36.79h-47.13v61.64H1905v-61.64h-47.13v36.79h21.6v-10.94h-10.8v-14.91h25.53v39.77h-50.56V483.08h50.56v39.77h-25.53v-14.91zM123 656.07v-10.93h-21.6v36.78h47.13v-61.64H15v61.64h47.13v-36.78h-21.6v10.93h10.8v14.91H25.8v-39.76h50.56v114.33H25.8v-39.77h25.53v14.91h-10.8v10.94h21.6v-36.78H15v61.63h133.53v-61.63H101.4v36.78H123v-10.94h-10.8v-14.91h25.53v39.77H87.16V631.22h50.57v39.76H112.2v-14.91zM270.27 656.07v-10.93h-21.6v36.78h47.13v-61.64H162.27v61.64h47.13v-36.78h-21.6v10.93h10.8v14.91h-25.53v-39.76h50.57v114.33h-50.57v-39.77h25.53v14.91h-10.8v10.94h21.6v-36.78h-47.13v61.63H295.8v-61.63h-47.13v36.78h21.6v-10.94h-10.8v-14.91H285v39.77h-50.56V631.22H285v39.76h-25.53v-14.91zM416.56 656.07v-10.93h-21.6v36.78h47.13v-61.64H308.56v61.64h47.13v-36.78h-21.6v10.93h10.8v14.91h-25.53v-39.76h50.57v114.33h-50.57v-39.77h25.53v14.91h-10.8v10.94h21.6v-36.78h-47.13v61.63h133.53v-61.63h-47.13v36.78h21.6v-10.94h-10.8v-14.91h25.53v39.77h-50.56V631.22h50.56v39.76h-25.53v-14.91zM562.85 656.07v-10.93h-21.6v36.78h47.13v-61.64H454.85v61.64h47.13v-36.78h-21.6v10.93h10.8v14.91h-25.53v-39.76h50.57v114.33h-50.57v-39.77h25.53v14.91h-10.8v10.94h21.6v-36.78h-47.13v61.63h133.53v-61.63h-47.13v36.78h21.6v-10.94h-10.8v-14.91h25.53v39.77h-50.56V631.22h50.56v39.76h-25.53v-14.91zM709.15 656.07v-10.93h-21.6v36.78h47.12v-61.64H601.15v61.64h47.12v-36.78h-21.6v10.93h10.8v14.91h-25.52v-39.76h50.56v114.33h-50.56v-39.77h25.52v14.91h-10.8v10.94h21.6v-36.78h-47.12v61.63h133.52v-61.63h-47.12v36.78h21.6v-10.94h-10.8v-14.91h25.52v39.77h-50.56V631.22h50.56v39.76h-25.52v-14.91zM855.44 656.07v-10.93h-21.6v36.78h47.12v-61.64H747.44v61.64h47.12v-36.78h-21.6v10.93h10.8v14.91h-25.52v-39.76h50.56v114.33h-50.56v-39.77h25.52v14.91h-10.8v10.94h21.6v-36.78h-47.12v61.63h133.52v-61.63h-47.12v36.78h21.6v-10.94h-10.8v-14.91h25.52v39.77H819.6V631.22h50.56v39.76h-25.52v-14.91zM1001.73 656.07v-10.93h-21.6v36.78h47.12v-61.64H893.73v61.64h47.12v-36.78h-21.6v10.93h10.8v14.91h-25.52v-39.76h50.56v114.33h-50.56v-39.77h25.52v14.91h-10.8v10.94h21.6v-36.78h-47.12v61.63h133.52v-61.63h-47.12v36.78h21.6v-10.94h-10.8v-14.91h25.52v39.77h-50.56V631.22h50.56v39.76h-25.52v-14.91zM1148.02 656.07v-10.93h-21.6v36.78h47.13v-61.64h-133.53v61.64h47.13v-36.78h-21.6v10.93h10.8v14.91h-25.53v-39.76h50.56v114.33h-50.56v-39.77h25.53v14.91h-10.8v10.94h21.6v-36.78h-47.13v61.63h133.53v-61.63h-47.13v36.78h21.6v-10.94h-10.8v-14.91h25.53v39.77h-50.57V631.22h50.57v39.76h-25.53v-14.91zM1294.31 656.07v-10.93h-21.6v36.78h47.13v-61.64h-133.53v61.64h47.13v-36.78h-21.6v10.93h10.8v14.91h-25.53v-39.76h50.56v114.33h-50.56v-39.77h25.53v14.91h-10.8v10.94h21.6v-36.78h-47.13v61.63h133.53v-61.63h-47.13v36.78h21.6v-10.94h-10.8v-14.91h25.53v39.77h-50.57V631.22h50.57v39.76h-25.53v-14.91zM1440.6 656.07v-10.93H1419v36.78h47.13v-61.64H1332.6v61.64h47.13v-36.78h-21.6v10.93h10.8v14.91h-25.53v-39.76h50.56v114.33h-50.56v-39.77h25.53v14.91h-10.8v10.94h21.6v-36.78h-47.13v61.63h133.53v-61.63H1419v36.78h21.6v-10.94h-10.8v-14.91h25.53v39.77h-50.57V631.22h50.57v39.76h-25.53v-14.91zM1586.89 656.07v-10.93h-21.6v36.78h47.13v-61.64h-133.53v61.64h47.13v-36.78h-21.6v10.93h10.8v14.91h-25.53v-39.76h50.56v114.33h-50.56v-39.77h25.53v14.91h-10.8v10.94h21.6v-36.78h-47.13v61.63h133.53v-61.63h-47.13v36.78h21.6v-10.94h-10.8v-14.91h25.53v39.77h-50.57V631.22h50.57v39.76h-25.53v-14.91zM1733.18 656.07v-10.93h-21.6v36.78h47.13v-61.64h-133.53v61.64h47.13v-36.78h-21.6v10.93h10.8v14.91h-25.53v-39.76h50.57v114.33h-50.57v-39.77h25.53v14.91h-10.8v10.94h21.6v-36.78h-47.13v61.63h133.53v-61.63h-47.13v36.78h21.6v-10.94h-10.8v-14.91h25.53v39.77h-50.56V631.22h50.56v39.76h-25.53v-14.91zM1879.47 656.07v-10.93h-21.6v36.78H1905v-61.64h-133.53v61.64h47.13v-36.78H1797v10.93h10.8v14.91h-25.53v-39.76h50.57v114.33h-50.57v-39.77h25.53v14.91H1797v10.94h21.6v-36.78h-47.13v61.63H1905v-61.63h-47.13v36.78h21.6v-10.94h-10.8v-14.91h25.53v39.77h-50.56V631.22h50.56v39.76h-25.53v-14.91zM123 804.2v-10.93h-21.6v36.78h47.13v-61.64H15v61.64h47.13v-36.78h-21.6v10.93h10.8v14.92H25.8v-39.77h50.56v114.33H25.8v-39.77h25.53v14.92h-10.8v10.93h21.6v-36.78H15v61.64h133.53v-61.64H101.4v36.78H123v-10.93h-10.8v-14.92h25.53v39.77H87.16V779.35h50.57v39.77H112.2V804.2zM270.27 804.2v-10.93h-21.6v36.78h47.13v-61.64H162.27v61.64h47.13v-36.78h-21.6v10.93h10.8v14.92h-25.53v-39.77h50.57v114.33h-50.57v-39.77h25.53v14.92h-10.8v10.93h21.6v-36.78h-47.13v61.64H295.8v-61.64h-47.13v36.78h21.6v-10.93h-10.8v-14.92H285v39.77h-50.56V779.35H285v39.77h-25.53V804.2zM416.56 804.2v-10.93h-21.6v36.78h47.13v-61.64H308.56v61.64h47.13v-36.78h-21.6v10.93h10.8v14.92h-25.53v-39.77h50.57v114.33h-50.57v-39.77h25.53v14.92h-10.8v10.93h21.6v-36.78h-47.13v61.64h133.53v-61.64h-47.13v36.78h21.6v-10.93h-10.8v-14.92h25.53v39.77h-50.56V779.35h50.56v39.77h-25.53V804.2zM562.85 804.2v-10.93h-21.6v36.78h47.13v-61.64H454.85v61.64h47.13v-36.78h-21.6v10.93h10.8v14.92h-25.53v-39.77h50.57v114.33h-50.57v-39.77h25.53v14.92h-10.8v10.93h21.6v-36.78h-47.13v61.64h133.53v-61.64h-47.13v36.78h21.6v-10.93h-10.8v-14.92h25.53v39.77h-50.56V779.35h50.56v39.77h-25.53V804.2zM709.15 804.2v-10.93h-21.6v36.78h47.12v-61.64H601.15v61.64h47.12v-36.78h-21.6v10.93h10.8v14.92h-25.52v-39.77h50.56v114.33h-50.56v-39.77h25.52v14.92h-10.8v10.93h21.6v-36.78h-47.12v61.64h133.52v-61.64h-47.12v36.78h21.6v-10.93h-10.8v-14.92h25.52v39.77h-50.56V779.35h50.56v39.77h-25.52V804.2zM855.44 804.2v-10.93h-21.6v36.78h47.12v-61.64H747.44v61.64h47.12v-36.78h-21.6v10.93h10.8v14.92h-25.52v-39.77h50.56v114.33h-50.56v-39.77h25.52v14.92h-10.8v10.93h21.6v-36.78h-47.12v61.64h133.52v-61.64h-47.12v36.78h21.6v-10.93h-10.8v-14.92h25.52v39.77H819.6V779.35h50.56v39.77h-25.52V804.2zM1001.73 804.2v-10.93h-21.6v36.78h47.12v-61.64H893.73v61.64h47.12v-36.78h-21.6v10.93h10.8v14.92h-25.52v-39.77h50.56v114.33h-50.56v-39.77h25.52v14.92h-10.8v10.93h21.6v-36.78h-47.12v61.64h133.52v-61.64h-47.12v36.78h21.6v-10.93h-10.8v-14.92h25.52v39.77h-50.56V779.35h50.56v39.77h-25.52V804.2zM1148.02 804.2v-10.93h-21.6v36.78h47.13v-61.64h-133.53v61.64h47.13v-36.78h-21.6v10.93h10.8v14.92h-25.53v-39.77h50.56v114.33h-50.56v-39.77h25.53v14.92h-10.8v10.93h21.6v-36.78h-47.13v61.64h133.53v-61.64h-47.13v36.78h21.6v-10.93h-10.8v-14.92h25.53v39.77h-50.57V779.35h50.57v39.77h-25.53V804.2zM1294.31 804.2v-10.93h-21.6v36.78h47.13v-61.64h-133.53v61.64h47.13v-36.78h-21.6v10.93h10.8v14.92h-25.53v-39.77h50.56v114.33h-50.56v-39.77h25.53v14.92h-10.8v10.93h21.6v-36.78h-47.13v61.64h133.53v-61.64h-47.13v36.78h21.6v-10.93h-10.8v-14.92h25.53v39.77h-50.57V779.35h50.57v39.77h-25.53V804.2zM1440.6 804.2v-10.93H1419v36.78h47.13v-61.64H1332.6v61.64h47.13v-36.78h-21.6v10.93h10.8v14.92h-25.53v-39.77h50.56v114.33h-50.56v-39.77h25.53v14.92h-10.8v10.93h21.6v-36.78h-47.13v61.64h133.53v-61.64H1419v36.78h21.6v-10.93h-10.8v-14.92h25.53v39.77h-50.57V779.35h50.57v39.77h-25.53V804.2zM1586.89 804.2v-10.93h-21.6v36.78h47.13v-61.64h-133.53v61.64h47.13v-36.78h-21.6v10.93h10.8v14.92h-25.53v-39.77h50.56v114.33h-50.56v-39.77h25.53v14.92h-10.8v10.93h21.6v-36.78h-47.13v61.64h133.53v-61.64h-47.13v36.78h21.6v-10.93h-10.8v-14.92h25.53v39.77h-50.57V779.35h50.57v39.77h-25.53V804.2zM1733.18 804.2v-10.93h-21.6v36.78h47.13v-61.64h-133.53v61.64h47.13v-36.78h-21.6v10.93h10.8v14.92h-25.53v-39.77h50.57v114.33h-50.57v-39.77h25.53v14.92h-10.8v10.93h21.6v-36.78h-47.13v61.64h133.53v-61.64h-47.13v36.78h21.6v-10.93h-10.8v-14.92h25.53v39.77h-50.56V779.35h50.56v39.77h-25.53V804.2zM1879.47 804.2v-10.93h-21.6v36.78H1905v-61.64h-133.53v61.64h47.13v-36.78H1797v10.93h10.8v14.92h-25.53v-39.77h50.57v114.33h-50.57v-39.77h25.53v14.92H1797v10.93h21.6v-36.78h-47.13v61.64H1905v-61.64h-47.13v36.78h21.6v-10.93h-10.8v-14.92h25.53v39.77h-50.56V779.35h50.56v39.77h-25.53V804.2zM123 952.34V941.4h-21.6v36.79h47.13v-61.64H15v61.64h47.13V941.4h-21.6v10.94h10.8v14.91H25.8v-39.77h50.56v114.33H25.8v-39.76h25.53v14.91h-10.8v10.94h21.6v-36.79H15v61.64h133.53v-61.64H101.4v36.79H123v-10.94h-10.8v-14.91h25.53v39.76H87.16V927.48h50.57v39.77H112.2v-14.91zM270.27 952.34V941.4h-21.6v36.79h47.13v-61.64H162.27v61.64h47.13V941.4h-21.6v10.94h10.8v14.91h-25.53v-39.77h50.57v114.33h-50.57v-39.76h25.53v14.91h-10.8v10.94h21.6v-36.79h-47.13v61.64H295.8v-61.64h-47.13v36.79h21.6v-10.94h-10.8v-14.91H285v39.76h-50.56V927.48H285v39.77h-25.53v-14.91zM416.56 952.34V941.4h-21.6v36.79h47.13v-61.64H308.56v61.64h47.13V941.4h-21.6v10.94h10.8v14.91h-25.53v-39.77h50.57v114.33h-50.57v-39.76h25.53v14.91h-10.8v10.94h21.6v-36.79h-47.13v61.64h133.53v-61.64h-47.13v36.79h21.6v-10.94h-10.8v-14.91h25.53v39.76h-50.56V927.48h50.56v39.77h-25.53v-14.91zM562.85 952.34V941.4h-21.6v36.79h47.13v-61.64H454.85v61.64h47.13V941.4h-21.6v10.94h10.8v14.91h-25.53v-39.77h50.57v114.33h-50.57v-39.76h25.53v14.91h-10.8v10.94h21.6v-36.79h-47.13v61.64h133.53v-61.64h-47.13v36.79h21.6v-10.94h-10.8v-14.91h25.53v39.76h-50.56V927.48h50.56v39.77h-25.53v-14.91zM709.15 952.34V941.4h-21.6v36.79h47.12v-61.64H601.15v61.64h47.12V941.4h-21.6v10.94h10.8v14.91h-25.52v-39.77h50.56v114.33h-50.56v-39.76h25.52v14.91h-10.8v10.94h21.6v-36.79h-47.12v61.64h133.52v-61.64h-47.12v36.79h21.6v-10.94h-10.8v-14.91h25.52v39.76h-50.56V927.48h50.56v39.77h-25.52v-14.91zM855.44 952.34V941.4h-21.6v36.79h47.12v-61.64H747.44v61.64h47.12V941.4h-21.6v10.94h10.8v14.91h-25.52v-39.77h50.56v114.33h-50.56v-39.76h25.52v14.91h-10.8v10.94h21.6v-36.79h-47.12v61.64h133.52v-61.64h-47.12v36.79h21.6v-10.94h-10.8v-14.91h25.52v39.76H819.6V927.48h50.56v39.77h-25.52v-14.91zM1001.73 952.34V941.4h-21.6v36.79h47.12v-61.64H893.73v61.64h47.12V941.4h-21.6v10.94h10.8v14.91h-25.52v-39.77h50.56v114.33h-50.56v-39.76h25.52v14.91h-10.8v10.94h21.6v-36.79h-47.12v61.64h133.52v-61.64h-47.12v36.79h21.6v-10.94h-10.8v-14.91h25.52v39.76h-50.56V927.48h50.56v39.77h-25.52v-14.91zM1148.02 952.34V941.4h-21.6v36.79h47.13v-61.64h-133.53v61.64h47.13V941.4h-21.6v10.94h10.8v14.91h-25.53v-39.77h50.56v114.33h-50.56v-39.76h25.53v14.91h-10.8v10.94h21.6v-36.79h-47.13v61.64h133.53v-61.64h-47.13v36.79h21.6v-10.94h-10.8v-14.91h25.53v39.76h-50.57V927.48h50.57v39.77h-25.53v-14.91zM1294.31 952.34V941.4h-21.6v36.79h47.13v-61.64h-133.53v61.64h47.13V941.4h-21.6v10.94h10.8v14.91h-25.53v-39.77h50.56v114.33h-50.56v-39.76h25.53v14.91h-10.8v10.94h21.6v-36.79h-47.13v61.64h133.53v-61.64h-47.13v36.79h21.6v-10.94h-10.8v-14.91h25.53v39.76h-50.57V927.48h50.57v39.77h-25.53v-14.91zM1440.6 952.34V941.4H1419v36.79h47.13v-61.64H1332.6v61.64h47.13V941.4h-21.6v10.94h10.8v14.91h-25.53v-39.77h50.56v114.33h-50.56v-39.76h25.53v14.91h-10.8v10.94h21.6v-36.79h-47.13v61.64h133.53v-61.64H1419v36.79h21.6v-10.94h-10.8v-14.91h25.53v39.76h-50.57V927.48h50.57v39.77h-25.53v-14.91zM1586.89 952.34V941.4h-21.6v36.79h47.13v-61.64h-133.53v61.64h47.13V941.4h-21.6v10.94h10.8v14.91h-25.53v-39.77h50.56v114.33h-50.56v-39.76h25.53v14.91h-10.8v10.94h21.6v-36.79h-47.13v61.64h133.53v-61.64h-47.13v36.79h21.6v-10.94h-10.8v-14.91h25.53v39.76h-50.57V927.48h50.57v39.77h-25.53v-14.91zM1733.18 952.34V941.4h-21.6v36.79h47.13v-61.64h-133.53v61.64h47.13V941.4h-21.6v10.94h10.8v14.91h-25.53v-39.77h50.57v114.33h-50.57v-39.76h25.53v14.91h-10.8v10.94h21.6v-36.79h-47.13v61.64h133.53v-61.64h-47.13v36.79h21.6v-10.94h-10.8v-14.91h25.53v39.76h-50.56V927.48h50.56v39.77h-25.53v-14.91zM1879.47 952.34V941.4h-21.6v36.79H1905v-61.64h-133.53v61.64h47.13V941.4H1797v10.94h10.8v14.91h-25.53v-39.77h50.57v114.33h-50.57v-39.76h25.53v14.91H1797v10.94h21.6v-36.79h-47.13v61.64H1905v-61.64h-47.13v36.79h21.6v-10.94h-10.8v-14.91h25.53v39.76h-50.56V927.48h50.56v39.77h-25.53v-14.91z"/></svg>